<?xml version="1.0" encoding="UTF-8"?>
<svg version="1.1" xmlns="http://www.w3.org/2000/svg" width="378" height="18">
<path d="M0 0 C3.66550156 -0.00693767 7.33096246 -0.01858528 10.99644852 -0.03116226 C36.79075486 -0.10755433 62.49571706 0.2579201 88.25056839 1.76635361 C89.32321819 1.82886936 90.395868 1.89138512 91.50102234 1.95579529 C104.33954034 2.72219907 117.10167592 3.80176208 129.86775589 5.36791611 C129.86775589 6.68791611 129.86775589 8.00791611 129.86775589 9.36791611 C117.99768915 8.76408406 106.14383853 7.99584164 94.29085159 7.11645126 C74.53916223 5.70015065 54.80284892 5.20165483 35.00447464 5.16479111 C32.66156877 5.15776856 30.31866309 5.15068175 27.9757576 5.14353561 C20.50225432 5.12408251 13.02878192 5.11909921 5.55525589 5.11791611 C4.2798431 5.11747425 3.00443031 5.11703239 1.69036865 5.11657715 C-39.01424739 5.1091838 -79.5106287 5.63441134 -120.13224411 8.36791611 C-121.50592784 8.45860572 -122.87962613 8.54907503 -124.25333786 8.63933945 C-157.06489834 10.79949932 -189.82538703 13.40344764 -222.53043747 16.84399033 C-223.51853409 16.9465564 -224.50663071 17.04912247 -225.52466965 17.1547966 C-227.32816935 17.34287466 -229.13123106 17.53523707 -230.93366623 17.73325729 C-236.68404585 18.33305817 -242.35247346 18.4690823 -248.13224411 18.36791611 C-247.80224411 17.04791611 -247.47224411 15.72791611 -247.13224411 14.36791611 C-205.52096276 9.94624178 -163.89753599 6.2102807 -122.13898087 3.49909592 C-120.19318176 3.37189958 -118.24757831 3.24172113 -116.30198288 3.11144638 C-77.54446116 0.52332987 -38.83366454 0.0615935 0 0 Z " fill="#FFFFFF" transform="translate(248.13224411010742,-0.3679161071777344)"/>
</svg>
